<?xml version="1.0" standalone="no"?>
<!DOCTYPE svg PUBLIC "-//W3C//DTD SVG 20010904//EN"
 "http://www.w3.org/TR/2001/REC-SVG-20010904/DTD/svg10.dtd">
<svg version="1.0" xmlns="http://www.w3.org/2000/svg"
 width="332.000000pt" height="444.000000pt" viewBox="0 0 332.000000 444.000000"
 preserveAspectRatio="xMidYMid meet">

<g transform="translate(0.000000,444.000000) scale(0.100000,-0.100000)"
fill="#000000" stroke="none">
<path d="M1411 3025 c-112 -25 -222 -109 -272 -207 -43 -84 -49 -138 -49 -438
0 -311 6 -358 57 -452 53 -98 164 -175 283 -198 69 -13 811 -13 880 0 168 32
298 160 330 325 8 40 10 159 8 360 -3 286 -5 303 -27 358 -43 108 -130 195
-241 239 -53 22 -67 23 -480 25 -337 2 -438 -1 -489 -12z m934 -176 c80 -38
145 -140 145 -228 0 -36 -283 -321 -319 -321 -16 0 -48 23 -96 69 -87 83 -140
101 -227 81 -51 -12 -64 -23 -291 -249 l-238 -236 -19 25 c-43 55 -50 108 -50
390 0 296 6 337 61 403 17 21 52 49 77 62 l47 24 433 1 c420 0 433 -1 477 -21z
m131 -783 c-19 -65 -72 -127 -134 -158 -47 -23 -51 -23 -454 -26 -225 -2 -408
1 -408 5 0 14 405 413 418 413 7 0 44 -30 83 -66 80 -75 118 -94 191 -94 75 0
120 27 223 130 l90 90 3 -121 c2 -86 -2 -137 -12 -173z"/>
<path d="M1493 2696 c-39 -18 -73 -69 -73 -111 0 -71 75 -133 145 -119 53 10
95 63 95 119 0 86 -90 145 -167 111z"/>
<path d="M813 2590 c-30 -12 -77 -79 -105 -149 -21 -53 -23 -72 -26 -361 -3
-211 0 -322 8 -360 35 -163 165 -289 330 -320 82 -16 1058 -13 1090 3 61 31
61 108 -1 139 -31 16 -79 18 -557 18 -511 0 -523 0 -567 21 -25 12 -61 40 -80
62 -59 69 -65 107 -65 407 0 292 6 331 56 397 38 50 38 97 0 129 -29 25 -47
28 -83 14z"/>
</g>
</svg>
